<svg id="Capa_1" data-name="Capa 1" xmlns="http://www.w3.org/2000/svg" viewBox="0 0 720 720"><defs><style>.cls-1{fill:#fff;}.cls-2{fill:#6c9fbb;}.cls-3{fill:#ff5442;}.cls-4{font-size:26.96px;font-family:Poppins-Regular, Poppins;}.cls-5{font-size:107.85px;font-family:Poppins-Bold, Poppins;font-weight:700;}</style></defs><path class="cls-1" d="M360,648.22a288.22,288.22,0,0,1-203.8-492A288.22,288.22,0,1,1,563.8,563.8,286.3,286.3,0,0,1,360,648.22Z"/><path class="cls-2" d="M360,78.78a280.22,280.22,0,1,1-109.46,22.09A279.45,279.45,0,0,1,360,78.78m0-14C197,64.78,64.78,197,64.78,360S197,655.22,360,655.22,655.22,523.05,655.22,360,523.05,64.78,360,64.78Z"/><path class="cls-3" d="M469.69,241.27c.59-3,2.73-4.56,5.66-4s4.42,2.65,3.79,5.87c-.56,2.93-2.69,4.36-5.47,3.82C470.35,246.33,469.16,244,469.69,241.27Z"/><path class="cls-3" d="M474.28,301.41A2.72,2.72,0,0,0,471,303.8a2.74,2.74,0,1,0,3.24-2.39Zm0,0A2.72,2.72,0,0,0,471,303.8a2.74,2.74,0,1,0,3.24-2.39Zm0,0A2.72,2.72,0,0,0,471,303.8a2.74,2.74,0,1,0,3.24-2.39Zm0,0A2.72,2.72,0,0,0,471,303.8a2.74,2.74,0,1,0,3.24-2.39Zm-14.16-17.75a2.47,2.47,0,0,0-3,1.9l5,1A2.35,2.35,0,0,0,460.12,283.66Zm9.25,1.82a2.71,2.71,0,0,0-3.24,2.39,2.74,2.74,0,1,0,3.24-2.39Zm4.91,15.93A2.72,2.72,0,0,0,471,303.8a2.74,2.74,0,1,0,3.24-2.39Zm0,0A2.72,2.72,0,0,0,471,303.8a2.74,2.74,0,1,0,3.24-2.39Zm-4.91-15.93a2.71,2.71,0,0,0-3.24,2.39,2.74,2.74,0,1,0,3.24-2.39Zm-9.25-1.82a2.47,2.47,0,0,0-3,1.9l5,1A2.35,2.35,0,0,0,460.12,283.66Zm-15.28-2.94a2.73,2.73,0,0,0-3.25,2.39,2.74,2.74,0,1,0,3.25-2.39Zm15.28,2.94a2.47,2.47,0,0,0-3,1.9l5,1A2.35,2.35,0,0,0,460.12,283.66Zm9.25,1.82a2.71,2.71,0,0,0-3.24,2.39,2.74,2.74,0,1,0,3.24-2.39Zm4.91,15.93A2.72,2.72,0,0,0,471,303.8a2.74,2.74,0,1,0,3.24-2.39Zm0,0A2.72,2.72,0,0,0,471,303.8a2.74,2.74,0,1,0,3.24-2.39Zm-4.91-15.93a2.71,2.71,0,0,0-3.24,2.39,2.74,2.74,0,1,0,3.24-2.39Zm-9.25-1.82a2.47,2.47,0,0,0-3,1.9l5,1A2.35,2.35,0,0,0,460.12,283.66Zm-15.28-2.94a2.73,2.73,0,0,0-3.25,2.39,2.74,2.74,0,1,0,3.25-2.39Zm0,0a2.73,2.73,0,0,0-3.25,2.39,2.74,2.74,0,1,0,3.25-2.39Zm15.28,2.94a2.47,2.47,0,0,0-3,1.9l5,1A2.35,2.35,0,0,0,460.12,283.66Zm9.25,1.82a2.71,2.71,0,0,0-3.24,2.39,2.74,2.74,0,1,0,3.24-2.39Zm4.91,15.93A2.72,2.72,0,0,0,471,303.8a2.74,2.74,0,1,0,3.24-2.39Zm0,0A2.72,2.72,0,0,0,471,303.8a2.74,2.74,0,1,0,3.24-2.39Zm-4.91-15.93a2.71,2.71,0,0,0-3.24,2.39,2.74,2.74,0,1,0,3.24-2.39Zm-9.25-1.82a2.47,2.47,0,0,0-3,1.9l5,1A2.35,2.35,0,0,0,460.12,283.66Zm-15.28-2.94a2.73,2.73,0,0,0-3.25,2.39,2.74,2.74,0,1,0,3.25-2.39Zm0,0a2.73,2.73,0,0,0-3.25,2.39,2.74,2.74,0,1,0,3.25-2.39Zm1.09,15.2a2.71,2.71,0,0,0-3.22,2.4,2.73,2.73,0,1,0,3.22-2.4Zm14.19-12.26a2.47,2.47,0,0,0-3,1.9l5,1A2.35,2.35,0,0,0,460.12,283.66Zm9.25,1.82a2.71,2.71,0,0,0-3.24,2.39,2.74,2.74,0,1,0,3.24-2.39Zm4.91,15.93A2.72,2.72,0,0,0,471,303.8a2.74,2.74,0,1,0,3.24-2.39Zm0,0A2.72,2.72,0,0,0,471,303.8a2.74,2.74,0,1,0,3.24-2.39Zm-4.91-15.93a2.71,2.71,0,0,0-3.24,2.39,2.74,2.74,0,1,0,3.24-2.39Zm-9.25-1.82a2.47,2.47,0,0,0-3,1.9l5,1A2.35,2.35,0,0,0,460.12,283.66Zm-14.19,12.26a2.71,2.71,0,0,0-3.22,2.4,2.73,2.73,0,1,0,3.22-2.4Zm-1.09-15.2a2.73,2.73,0,0,0-3.25,2.39,2.74,2.74,0,1,0,3.25-2.39Zm0,0a2.73,2.73,0,0,0-3.25,2.39,2.74,2.74,0,1,0,3.25-2.39Zm1.09,15.2a2.71,2.71,0,0,0-3.22,2.4,2.73,2.73,0,1,0,3.22-2.4Zm10.25,2a3,3,0,1,0,2.11,3.44A2.72,2.72,0,0,0,456.18,297.9Zm3.94-14.24a2.47,2.47,0,0,0-3,1.9l5,1A2.35,2.35,0,0,0,460.12,283.66Zm9.25,1.82a2.71,2.71,0,0,0-3.24,2.39,2.74,2.74,0,1,0,3.24-2.39Zm4.91,15.93A2.72,2.72,0,0,0,471,303.8a2.74,2.74,0,1,0,3.24-2.39Zm0,0A2.72,2.72,0,0,0,471,303.8a2.74,2.74,0,1,0,3.24-2.39Zm-4.91-15.93a2.71,2.71,0,0,0-3.24,2.39,2.74,2.74,0,1,0,3.24-2.39Zm-9.25-1.82a2.47,2.47,0,0,0-3,1.9l5,1A2.35,2.35,0,0,0,460.12,283.66Zm-3.94,14.24a3,3,0,1,0,2.11,3.44A2.72,2.72,0,0,0,456.18,297.9Zm-10.25-2a2.71,2.71,0,0,0-3.22,2.4,2.73,2.73,0,1,0,3.22-2.4Zm-1.09-15.2a2.73,2.73,0,0,0-3.25,2.39,2.74,2.74,0,1,0,3.25-2.39Zm-26,9.91a2.49,2.49,0,0,0-2.95,1.92l5,1A2.37,2.37,0,0,0,418.81,290.63Zm26-9.91a2.73,2.73,0,0,0-3.25,2.39,2.74,2.74,0,1,0,3.25-2.39Zm1.09,15.2a2.71,2.71,0,0,0-3.22,2.4,2.73,2.73,0,1,0,3.22-2.4Zm10.25,2a3,3,0,1,0,2.11,3.44A2.72,2.72,0,0,0,456.18,297.9Zm3.94-14.24a2.47,2.47,0,0,0-3,1.9l5,1A2.35,2.35,0,0,0,460.12,283.66Zm9.25,1.82a2.71,2.71,0,0,0-3.24,2.39,2.74,2.74,0,1,0,3.24-2.39Zm4.91,15.93A2.72,2.72,0,0,0,471,303.8a2.74,2.74,0,1,0,3.24-2.39Zm0,0A2.72,2.72,0,0,0,471,303.8a2.74,2.74,0,1,0,3.24-2.39Zm-4.91-15.93a2.71,2.71,0,0,0-3.24,2.39,2.74,2.74,0,1,0,3.24-2.39Zm-9.25-1.82a2.47,2.47,0,0,0-3,1.9l5,1A2.35,2.35,0,0,0,460.12,283.66Zm-3.94,14.24a3,3,0,1,0,2.11,3.44A2.72,2.72,0,0,0,456.18,297.9Zm-10.25-2a2.71,2.71,0,0,0-3.22,2.4,2.73,2.73,0,1,0,3.22-2.4Zm-1.09-15.2a2.73,2.73,0,0,0-3.25,2.39,2.74,2.74,0,1,0,3.25-2.39Zm-26,9.91a2.49,2.49,0,0,0-2.95,1.92l5,1A2.37,2.37,0,0,0,418.81,290.63Zm-9.12-1.73a3,3,0,1,0,2.12,3.44A2.72,2.72,0,0,0,409.69,288.9Zm9.12,1.73a2.49,2.49,0,0,0-2.95,1.92l5,1A2.37,2.37,0,0,0,418.81,290.63Zm26-9.91a2.73,2.73,0,0,0-3.25,2.39,2.74,2.74,0,1,0,3.25-2.39Zm1.09,15.2a2.71,2.71,0,0,0-3.22,2.4,2.73,2.73,0,1,0,3.22-2.4Zm10.25,2a3,3,0,1,0,2.11,3.44A2.72,2.72,0,0,0,456.18,297.9Zm3.94-14.24a2.47,2.47,0,0,0-3,1.9l5,1A2.35,2.35,0,0,0,460.12,283.66Zm9.25,1.82a2.71,2.71,0,0,0-3.24,2.39,2.74,2.74,0,1,0,3.24-2.39Zm4.91,15.93A2.72,2.72,0,0,0,471,303.8a2.74,2.74,0,1,0,3.24-2.39Zm0,0A2.72,2.72,0,0,0,471,303.8a2.74,2.74,0,1,0,3.24-2.39Zm-4.91-15.93a2.71,2.71,0,0,0-3.24,2.39,2.74,2.74,0,1,0,3.24-2.39Zm-9.25-1.82a2.47,2.47,0,0,0-3,1.9l5,1A2.35,2.35,0,0,0,460.12,283.66Zm-3.94,14.24a3,3,0,1,0,2.11,3.44A2.72,2.72,0,0,0,456.18,297.9Zm-10.25-2a2.71,2.71,0,0,0-3.22,2.4,2.73,2.73,0,1,0,3.22-2.4Zm-1.09-15.2a2.73,2.73,0,0,0-3.25,2.39,2.74,2.74,0,1,0,3.25-2.39Zm-26,9.91a2.49,2.49,0,0,0-2.95,1.92l5,1A2.37,2.37,0,0,0,418.81,290.63Zm-9.12-1.73a3,3,0,1,0,2.12,3.44A2.72,2.72,0,0,0,409.69,288.9Zm0,0a3,3,0,1,0,2.12,3.44A2.72,2.72,0,0,0,409.69,288.9Zm11.57-12.78a2.48,2.48,0,0,0-2.95,1.92l5,1A2.37,2.37,0,0,0,421.26,276.12Zm-2.45,14.51a2.49,2.49,0,0,0-2.95,1.92l5,1A2.37,2.37,0,0,0,418.81,290.63Zm26-9.91a2.73,2.73,0,0,0-3.25,2.39,2.74,2.74,0,1,0,3.25-2.39Zm1.09,15.2a2.71,2.71,0,0,0-3.22,2.4,2.73,2.73,0,1,0,3.22-2.4Zm10.25,2a3,3,0,1,0,2.11,3.44A2.72,2.72,0,0,0,456.18,297.9Zm3.94-14.24a2.47,2.47,0,0,0-3,1.9l5,1A2.35,2.35,0,0,0,460.12,283.66Zm9.25,1.82a2.71,2.71,0,0,0-3.24,2.39,2.74,2.74,0,1,0,3.24-2.39Zm4.91,15.93A2.72,2.72,0,0,0,471,303.8a2.74,2.74,0,1,0,3.24-2.39Zm0,0A2.72,2.72,0,0,0,471,303.8a2.74,2.74,0,1,0,3.24-2.39Zm-4.91-15.93a2.71,2.71,0,0,0-3.24,2.39,2.74,2.74,0,1,0,3.24-2.39Zm-9.25-1.82a2.47,2.47,0,0,0-3,1.9l5,1A2.35,2.35,0,0,0,460.12,283.66Zm-3.94,14.24a3,3,0,1,0,2.11,3.44A2.72,2.72,0,0,0,456.18,297.9Zm-10.25-2a2.71,2.71,0,0,0-3.22,2.4,2.73,2.73,0,1,0,3.22-2.4Zm-1.09-15.2a2.73,2.73,0,0,0-3.25,2.39,2.74,2.74,0,1,0,3.25-2.39Zm-26,9.91a2.49,2.49,0,0,0-2.95,1.92l5,1A2.37,2.37,0,0,0,418.81,290.63Zm2.45-14.51a2.48,2.48,0,0,0-2.95,1.92l5,1A2.37,2.37,0,0,0,421.26,276.12ZM409.69,288.9a3,3,0,1,0,2.12,3.44A2.72,2.72,0,0,0,409.69,288.9Zm0,0a3,3,0,1,0,2.12,3.44A2.72,2.72,0,0,0,409.69,288.9Zm9.12,1.73a2.49,2.49,0,0,0-2.95,1.92l5,1A2.37,2.37,0,0,0,418.81,290.63Zm2.45-14.51a2.48,2.48,0,0,0-2.95,1.92l5,1A2.37,2.37,0,0,0,421.26,276.12Zm23.58,4.6a2.73,2.73,0,0,0-3.25,2.39,2.74,2.74,0,1,0,3.25-2.39Zm1.09,15.2a2.71,2.71,0,0,0-3.22,2.4,2.73,2.73,0,1,0,3.22-2.4ZM453,440.67c-3.12-1.88-5.67-.91-6.85,1.06s-.86,4.68,2.26,6.55,5.59,1.05,6.83-1S456.09,442.52,453,440.67Zm3.18-142.77a3,3,0,1,0,2.11,3.44A2.72,2.72,0,0,0,456.18,297.9Zm3.94-14.24a2.47,2.47,0,0,0-3,1.9l5,1A2.35,2.35,0,0,0,460.12,283.66Zm9.25,1.82a2.71,2.71,0,0,0-3.24,2.39,2.74,2.74,0,1,0,3.24-2.39Zm4.91,15.93A2.72,2.72,0,0,0,471,303.8a2.74,2.74,0,1,0,3.24-2.39Zm0,0A2.72,2.72,0,0,0,471,303.8a2.74,2.74,0,1,0,3.24-2.39Zm-4.91-15.93a2.71,2.71,0,0,0-3.24,2.39,2.74,2.74,0,1,0,3.24-2.39ZM453,440.67c-3.12-1.88-5.67-.91-6.85,1.06s-.86,4.68,2.26,6.55,5.59,1.05,6.83-1S456.09,442.52,453,440.67Zm3.18-142.77a3,3,0,1,0,2.11,3.44A2.72,2.72,0,0,0,456.18,297.9Zm-10.25-2a2.71,2.71,0,0,0-3.22,2.4,2.73,2.73,0,1,0,3.22-2.4Zm-1.09-15.2a2.73,2.73,0,0,0-3.25,2.39,2.74,2.74,0,1,0,3.25-2.39Zm-23.58-4.6a2.48,2.48,0,0,0-2.95,1.92l5,1A2.37,2.37,0,0,0,421.26,276.12Zm-2.45,14.51a2.49,2.49,0,0,0-2.95,1.92l5,1A2.37,2.37,0,0,0,418.81,290.63Zm-9.12-1.73a3,3,0,1,0,2.12,3.44A2.72,2.72,0,0,0,409.69,288.9Zm50.43-5.24a2.47,2.47,0,0,0-3,1.9l5,1A2.35,2.35,0,0,0,460.12,283.66Zm-50.43,5.24a3,3,0,1,0,2.12,3.44A2.72,2.72,0,0,0,409.69,288.9Zm9.12,1.73a2.49,2.49,0,0,0-2.95,1.92l5,1A2.37,2.37,0,0,0,418.81,290.63Zm2.45-14.51a2.48,2.48,0,0,0-2.95,1.92l5,1A2.37,2.37,0,0,0,421.26,276.12Zm23.58,4.6a2.73,2.73,0,0,0-3.25,2.39,2.74,2.74,0,1,0,3.25-2.39Zm1.09,15.2a2.71,2.71,0,0,0-3.22,2.4,2.73,2.73,0,1,0,3.22-2.4ZM453,440.67c-3.12-1.88-5.67-.91-6.85,1.06s-.86,4.68,2.26,6.55,5.59,1.05,6.83-1S456.09,442.52,453,440.67Zm3.18-142.77a3,3,0,1,0,2.11,3.44A2.72,2.72,0,0,0,456.18,297.9Zm3.94-14.24a2.47,2.47,0,0,0-3,1.9l5,1A2.35,2.35,0,0,0,460.12,283.66Zm9.25,1.82a2.71,2.71,0,0,0-3.24,2.39,2.74,2.74,0,1,0,3.24-2.39Zm4.91,15.93A2.72,2.72,0,0,0,471,303.8a2.74,2.74,0,1,0,3.24-2.39Zm0,0A2.72,2.72,0,0,0,471,303.8a2.74,2.74,0,1,0,3.24-2.39Zm-4.91-15.93a2.71,2.71,0,0,0-3.24,2.39,2.74,2.74,0,1,0,3.24-2.39ZM453,440.67c-3.12-1.88-5.67-.91-6.85,1.06s-.86,4.68,2.26,6.55,5.59,1.05,6.83-1S456.09,442.52,453,440.67Zm3.18-142.77a3,3,0,1,0,2.11,3.44A2.72,2.72,0,0,0,456.18,297.9Zm-10.25-2a2.71,2.71,0,0,0-3.22,2.4,2.73,2.73,0,1,0,3.22-2.4Zm-1.09-15.2a2.73,2.73,0,0,0-3.25,2.39,2.74,2.74,0,1,0,3.25-2.39Zm-23.58-4.6a2.48,2.48,0,0,0-2.95,1.92l5,1A2.37,2.37,0,0,0,421.26,276.12Zm-2.45,14.51a2.49,2.49,0,0,0-2.95,1.92l5,1A2.37,2.37,0,0,0,418.81,290.63Zm-9.12-1.73a3,3,0,1,0,2.12,3.44A2.72,2.72,0,0,0,409.69,288.9Zm50.43-5.24a2.47,2.47,0,0,0-3,1.9l5,1A2.35,2.35,0,0,0,460.12,283.66ZM381.79,559c-3.12-1.88-5.68-.91-6.86,1.06s-.85,4.68,2.27,6.55,5.59,1,6.83-1S384.88,560.82,381.79,559Zm27.9-270.06a3,3,0,1,0,2.12,3.44A2.72,2.72,0,0,0,409.69,288.9Zm9.12,1.73a2.49,2.49,0,0,0-2.95,1.92l5,1A2.37,2.37,0,0,0,418.81,290.63Zm2.45-14.51a2.48,2.48,0,0,0-2.95,1.92l5,1A2.37,2.37,0,0,0,421.26,276.12Zm23.58,4.6a2.73,2.73,0,0,0-3.25,2.39,2.74,2.74,0,1,0,3.25-2.39Zm1.09,15.2a2.71,2.71,0,0,0-3.22,2.4,2.73,2.73,0,1,0,3.22-2.4ZM453,440.67c-3.12-1.88-5.67-.91-6.85,1.06s-.86,4.68,2.26,6.55,5.59,1.05,6.83-1S456.09,442.52,453,440.67Zm3.18-142.77a3,3,0,1,0,2.11,3.44A2.72,2.72,0,0,0,456.18,297.9Zm3.94-14.24a2.47,2.47,0,0,0-3,1.9l5,1A2.35,2.35,0,0,0,460.12,283.66Zm9.25,1.82a2.71,2.71,0,0,0-3.24,2.39,2.74,2.74,0,1,0,3.24-2.39Zm4.91,15.93A2.72,2.72,0,0,0,471,303.8a2.74,2.74,0,1,0,3.24-2.39Zm0,0A2.72,2.72,0,0,0,471,303.8a2.74,2.74,0,1,0,3.24-2.39Zm-4.91-15.93a2.71,2.71,0,0,0-3.24,2.39,2.74,2.74,0,1,0,3.24-2.39ZM453,440.67c-3.12-1.88-5.67-.91-6.85,1.06s-.86,4.68,2.26,6.55,5.59,1.05,6.83-1S456.09,442.52,453,440.67ZM381.79,559c-3.12-1.88-5.68-.91-6.86,1.06s-.85,4.68,2.27,6.55,5.59,1,6.83-1S384.88,560.82,381.79,559ZM456.18,297.9a3,3,0,1,0,2.11,3.44A2.72,2.72,0,0,0,456.18,297.9Zm-10.25-2a2.71,2.71,0,0,0-3.22,2.4,2.73,2.73,0,1,0,3.22-2.4Zm-1.09-15.2a2.73,2.73,0,0,0-3.25,2.39,2.74,2.74,0,1,0,3.25-2.39Zm-23.58-4.6a2.48,2.48,0,0,0-2.95,1.92l5,1A2.37,2.37,0,0,0,421.26,276.12Zm-2.45,14.51a2.49,2.49,0,0,0-2.95,1.92l5,1A2.37,2.37,0,0,0,418.81,290.63Zm-9.12-1.73a3,3,0,1,0,2.12,3.44A2.72,2.72,0,0,0,409.69,288.9Zm50.43-5.24a2.47,2.47,0,0,0-3,1.9l5,1A2.35,2.35,0,0,0,460.12,283.66Zm82.34,51.83c1.12-1.34.78-2.89.52-4.45-2.52-15.44-5.93-30.72-6.13-46.51-.07-7.25-3.39-13.54-9.1-18.25a20.88,20.88,0,0,1-7.54-13.63c-1-6.37-2.94-12.38-7.29-17.25-4.07-4.56-8.39-8.89-12.75-13.15a27.92,27.92,0,0,0-12.28-7.08,7.09,7.09,0,0,1-3.19-1.74c-3.79-3.7-8.53-5-13.65-5.26-16.19-.85-32.39-1.09-48.61-1.36-13.19-.21-24,4.2-32.19,14.87-7.43,9.69-13.33,19.9-14,32.47-.88,16.33,4.57,30.3,15.39,42.34,3.85,4.3,7.86,8.5,10.11,13.95,2,4.95,5.82,7.14,11,6.92,3.43-.15,6.84-.77,10.28-.94,9.64-.5,18.38,1.76,23.77,10.43,8.56,13.78,9.07,28.35,1.93,42.86a62.05,62.05,0,0,0-5.49,16.62C441.88,394,442,402,438.64,409.1c-5.19,11.06-10.71,22-16.24,32.85-3.14,6.19-7.09,11.81-12.88,15.9-3.62,2.55-7.25,5.13-10.82,7.77a255.8,255.8,0,0,0-54.09,53.87c-8.69,11.81-14.73,24.77-16.83,39.43-.14.9,0,2.06-1.13,2.57.05,2,.09,4,.14,6h0a19.51,19.51,0,0,1,.18,8q.07,3,.13,6a11.05,11.05,0,0,1,.8,4.24c.88,16.17,9.35,27.12,23.49,34.18,3.57,1.79,7.61,1,11.3,2.11l14-.31c.2-.63.74-.76,1.28-.91,8.82-2.55,15.81-7.87,21.87-14.59S412,592.69,418.22,586a43.57,43.57,0,0,0,11.17-23c2.82-17.11,6.22-34.07,11.45-50.64,5-15.72,11.7-30.48,23.29-42.57a106.34,106.34,0,0,0,11.15-14.07c8.62-12.82,15.8-26.53,23.87-39.68,7.07-11.55,13.78-23.36,23.64-32.92a23.08,23.08,0,0,0,4.13-6C532,367,537,356.8,542,346.64a9.88,9.88,0,0,0,.39-8.38C542,337.3,541.65,336.45,542.46,335.49Zm-86.77-49.63a3.83,3.83,0,0,1,4.7-3.31,3.69,3.69,0,0,1,3.06,4.51,5.57,5.57,0,0,1-.19.78l-6.33-1.22a2.55,2.55,0,0,0,2.1,3,2.2,2.2,0,0,0,2.49-1l1.42.26a3.64,3.64,0,0,1-4.13,1.88A3.9,3.9,0,0,1,455.69,285.86Zm-.39-4.31-.25,1.35-.35-.06c-1.26-.25-2.31.14-2.67,2l-.84,4.3-1.31-.26,1.53-7.91,1.32.26-.25,1.28A2.7,2.7,0,0,1,455.3,281.55Zm-.88-26.4L445,270l-5.55-1.08,6.28-15.44Zm-7.08,21.5-.23,1.14-3.38,1,.19-1Zm-9.86,8.66,1,.18-.22,1.11-1.19-.24a1.93,1.93,0,0,1-1.78-2.59l.91-4.65-1-.2.2-1.09,1,.21.39-2,1.32.26-.4,2,2.08.39-.21,1.09-2.07-.39-.91,4.65C436.45,284.82,436.67,285.15,437.48,285.31ZM415,249.36c8.89-4.84,18.28-9.56,19.46-15.65.51-2.62-.35-4.54-2.93-5s-4.39,1.19-5.05,4.61l-8.18-1.57c2-8.72,8.38-11.38,15-10.1,8.22,1.59,11,7.1,9.77,13.18-1.53,7.94-9.84,12.9-16.44,16.19l13.37,2.59-1.33,6.89-24.86-4.83Zm-1.81,43.23A3.88,3.88,0,0,1,408.6,296,3.45,3.45,0,0,1,406,293.8l-1,5.22-1.31-.24,2.26-11.67,1.31.25-.29,1.46a3.42,3.42,0,0,1,3.28-1A3.81,3.81,0,0,1,413.15,292.59ZM413,281.7l.87-4.47c.31-1.62-.41-2.61-1.74-2.87s-2.42.4-2.75,2.1l-.85,4.36-1.32-.25,2.07-10.68,1.32.26-.76,3.91a3,3,0,0,1,2.86-.77c1.77.34,2.94,1.73,2.5,4l-.91,4.65Zm9.2,12.35a6.53,6.53,0,0,1-.21.79l-6.31-1.23a2.53,2.53,0,0,0,2.09,3,2.2,2.2,0,0,0,2.5-1l1.41.28a3.61,3.61,0,0,1-4.13,1.86,4.16,4.16,0,0,1,1.58-8.17A3.7,3.7,0,0,1,422.16,294.05ZM420,283.19a3.87,3.87,0,0,1-3.11-4.86,3.83,3.83,0,0,1,4.7-3.31,3.7,3.7,0,0,1,3.06,4.52,6.35,6.35,0,0,1-.19.78l-6.33-1.23a2.54,2.54,0,0,0,2.08,3,2.21,2.21,0,0,0,2.52-1l1.41.27A3.63,3.63,0,0,1,420,283.19Zm8.29,9.51-.35-.08c-1.26-.23-2.32.14-2.67,2l-.83,4.29-1.32-.25,1.53-7.9,1.31.25-.24,1.28a2.73,2.73,0,0,1,2.83-.94ZM429,285a4.17,4.17,0,0,1,1.58-8.17,3.5,3.5,0,0,1,3.14,3.37l-1.42-.27a2.19,2.19,0,0,0-1.93-2c-1.45-.28-2.71.54-3.08,2.47s.48,3.19,1.93,3.48a2.16,2.16,0,0,0,2.53-1.14l1.43.28A3.6,3.6,0,0,1,429,285Zm6.87,15.16A2.14,2.14,0,0,0,438.4,299l1.42.27a3.57,3.57,0,0,1-4.16,2,4.17,4.17,0,0,1,1.57-8.17,3.51,3.51,0,0,1,3.14,3.37l-1.41-.27a2.2,2.2,0,0,0-1.94-2c-1.45-.29-2.7.53-3.08,2.46S434.42,299.83,435.87,300.11Zm4.39-17.25a3.81,3.81,0,0,1,4.53-3.33,3.3,3.3,0,0,1,2.63,2.15l.29-1.45,1.33.25-1.53,7.9-1.33-.25.28-1.46a3.35,3.35,0,0,1-3.26,1A3.86,3.86,0,0,1,440.26,282.86Zm8.19,9-.22,1.14-3.39,1,.19-1Zm-1.17,11.47.29-1.46a3.42,3.42,0,0,1-3.28,1,3.88,3.88,0,0,1-2.93-4.85,3.81,3.81,0,0,1,4.54-3.32,3.35,3.35,0,0,1,2.64,2.14l.28-1.45,1.33.27-1.53,7.9Zm5.16-.51-1,5.22-1.31-.25,2.25-11.67,1.32.25-.28,1.46a3.38,3.38,0,0,1,3.26-1,3.81,3.81,0,0,1,3,4.78,3.9,3.9,0,0,1-4.56,3.39A3.48,3.48,0,0,1,452.44,302.82ZM375.1,591.17c-4.1,6.8-11.81,8.69-18.71,4.53s-8.87-11.87-4.77-18.66c3.3-5.48,8.88-7.76,14.67-6.07l-3.72,6.18a5.92,5.92,0,0,0-5.87,3c-2.07,3.45-.93,7.35,3.14,9.81s8.05,1.63,10.13-1.82a5.94,5.94,0,0,0-.05-6.62l3.71-6.16C377.84,579.71,378.4,585.68,375.1,591.17Zm13.78-22.66c-3.25,5.39-9.31,7.28-15.12,3.78s-6.91-9.84-3.69-15.19,9.35-7.35,15.16-3.85S392.12,563.12,388.88,568.51Zm14.92-25.38-9.95-6c-2.5-1.5-4.7-1-6,1.18s-.74,4.35,1.76,5.85l9.95,6-3.38,5.62-18.32-11,3.38-5.61,2.42,1.47a7.89,7.89,0,0,1,.72-7.13c2.55-4.24,7.14-5.33,12.06-2.36l10.71,6.45Zm10.47-16.79c-2.95,4.89-7.65,6.53-11.36,4.67l3.35-5.56c1.35.65,2.89,0,3.83-1.53s.66-2.6-.16-3.09c-2.95-1.78-6.82,9.49-13.55,5.43-3.12-1.88-4.08-6.08-1.2-10.87s7.05-5.77,10.89-4l-3.13,5.18c-1.35-.58-2.74-.13-3.69,1.45-.79,1.32-.7,2.35.18,2.89,2.93,1.75,6.83-9.41,13.72-5.39C416.33,517.47,417,521.74,414.27,526.34Zm13.78-23.51-2.49-1.5a7.78,7.78,0,0,1-.65,7.17c-2.54,4.24-7.18,5.33-12.08,2.39l-10.7-6.45,3.35-5.58,10,6c2.49,1.5,4.72.91,6-1.19s.76-4.37-1.73-5.88l-9.95-6,3.38-5.61,18.32,11Zm21-34.9-9.94-6c-2.4-1.44-4.55-.86-5.83,1.27s-.81,4.32,1.59,5.75l10,6-3.37,5.58-9.94-6c-2.4-1.44-4.55-.85-5.83,1.29s-.81,4.3,1.59,5.74l9.95,6-3.38,5.62-18.32-11,3.38-5.61,2.3,1.39a7.61,7.61,0,0,1,.72-6.86,8,8,0,0,1,7.18-4.18,8.62,8.62,0,0,1,.3-8.24c2.72-4.52,7.38-5.7,12.3-2.74l10.71,6.44Zm11-17.71c-3.23,5.38-9.3,7.27-15.12,3.78s-6.91-9.85-3.68-15.19,9.34-7.35,15.15-3.86S463.33,444.83,460.09,450.22Zm1.82-144-1.3-.26,1.53-7.9,1.31.26Zm1.15-9.32a.89.89,0,0,1-.72-1.06.9.9,0,1,1,1.77.34A.89.89,0,0,1,463.06,296.85Zm4.67-4.4a3.86,3.86,0,0,1-2.94-4.84,3.81,3.81,0,0,1,4.55-3.32,3.32,3.32,0,0,1,2.63,2.14l.28-1.45,1.34.26-1.54,7.9-1.33-.25.29-1.47A3.39,3.39,0,0,1,467.73,292.45Zm1.41,8-2.05-.4-.91,4.67c-.14.78.09,1.11.89,1.26l1,.19-.22,1.11-1.18-.24a1.93,1.93,0,0,1-1.78-2.57l.91-4.68-1-.19.2-1.09,1,.21.39-2,1.32.26-.4,2,2.07.4Zm7.81,8.59-1.33-.26.29-1.46a3.37,3.37,0,0,1-3.27,1,3.87,3.87,0,0,1-2.94-4.84,3.83,3.83,0,0,1,4.53-3.34,3.37,3.37,0,0,1,2.65,2.16l.27-1.45,1.33.25Zm4.16-19.94-1.31-.25a1.55,1.55,0,0,0-1.46-1.71c-1-.18-1.64.17-1.75.8-.37,1.87,4.42,1.75,3.93,4.58-.26,1.3-1.59,2.06-3.33,1.72s-3-1.61-2.75-3.08l1.35.26c-.08.78.49,1.49,1.61,1.71s1.71-.21,1.84-.86c.34-1.76-4.54-1.65-4-4.59.23-1.21,1.56-2,3.32-1.65S481.32,287.58,481.11,289.14Zm5.09-38.66c-2.39,12.33-6.59,18.6-16.3,16.73-7.86-1.53-10.67-7.47-10-13.1l7.83,1.52c0,2.62,1.17,4.29,3.78,4.8,3.58.7,5.4-2.09,6.73-9a8.85,8.85,0,0,1-7.81,1.83c-6.18-1.2-10.19-6-8.7-13.66,1.43-7.34,7.1-11.16,14.77-9.67C486.81,232,488.33,239.49,486.2,250.48Zm-11.92,50.93A2.72,2.72,0,0,0,471,303.8a2.74,2.74,0,1,0,3.24-2.39Zm-4.91-15.93a2.71,2.71,0,0,0-3.24,2.39,2.74,2.74,0,1,0,3.24-2.39Zm-9.25-1.82a2.47,2.47,0,0,0-3,1.9l5,1A2.35,2.35,0,0,0,460.12,283.66Zm-1.83,17.68a2.72,2.72,0,0,0-2.11-3.44,3,3,0,1,0,2.11,3.44ZM453,440.67c-3.12-1.88-5.67-.91-6.85,1.06s-.86,4.68,2.26,6.55,5.59,1.05,6.83-1S456.09,442.52,453,440.67Zm-7.07-144.75a2.71,2.71,0,0,0-3.22,2.4,2.73,2.73,0,1,0,3.22-2.4Zm1-11.75a2.74,2.74,0,1,0-3.24,2.42A2.76,2.76,0,0,0,446.94,284.17Zm-25.68-8.05a2.48,2.48,0,0,0-2.95,1.92l5,1A2.37,2.37,0,0,0,421.26,276.12Zm-2.45,14.51a2.49,2.49,0,0,0-2.95,1.92l5,1A2.37,2.37,0,0,0,418.81,290.63Zm-9.12-1.73a3,3,0,1,0,2.12,3.44A2.72,2.72,0,0,0,409.69,288.9ZM381.79,559c-3.12-1.88-5.68-.91-6.86,1.06s-.85,4.68,2.27,6.55,5.59,1,6.83-1S384.88,560.82,381.79,559Zm78.33-275.3a2.47,2.47,0,0,0-3,1.9l5,1A2.35,2.35,0,0,0,460.12,283.66Zm-50.43,5.24a3,3,0,1,0,2.12,3.44A2.72,2.72,0,0,0,409.69,288.9Zm9.12,1.73a2.49,2.49,0,0,0-2.95,1.92l5,1A2.37,2.37,0,0,0,418.81,290.63Zm2.45-14.51a2.48,2.48,0,0,0-2.95,1.92l5,1A2.37,2.37,0,0,0,421.26,276.12Zm23.58,4.6a2.73,2.73,0,0,0-3.25,2.39,2.74,2.74,0,1,0,3.25-2.39Zm1.09,15.2a2.71,2.71,0,0,0-3.22,2.4,2.73,2.73,0,1,0,3.22-2.4Zm10.25,2a3,3,0,1,0,2.11,3.44A2.72,2.72,0,0,0,456.18,297.9ZM453,440.67c-3.12-1.88-5.67-.91-6.85,1.06s-.86,4.68,2.26,6.55,5.59,1.05,6.83-1S456.09,442.52,453,440.67Zm16.37-155.19a2.71,2.71,0,0,0-3.24,2.39,2.74,2.74,0,1,0,3.24-2.39Zm4.91,15.93A2.72,2.72,0,0,0,471,303.8a2.74,2.74,0,1,0,3.24-2.39Zm0,0A2.72,2.72,0,0,0,471,303.8a2.74,2.74,0,1,0,3.24-2.39Zm-4.91-15.93a2.71,2.71,0,0,0-3.24,2.39,2.74,2.74,0,1,0,3.24-2.39Zm-9.25-1.82a2.47,2.47,0,0,0-3,1.9l5,1A2.35,2.35,0,0,0,460.12,283.66Zm-3.94,14.24a3,3,0,1,0,2.11,3.44A2.72,2.72,0,0,0,456.18,297.9ZM453,440.67c-3.12-1.88-5.67-.91-6.85,1.06s-.86,4.68,2.26,6.55,5.59,1.05,6.83-1S456.09,442.52,453,440.67Zm-7.07-144.75a2.71,2.71,0,0,0-3.22,2.4,2.73,2.73,0,1,0,3.22-2.4Zm-1.09-15.2a2.73,2.73,0,0,0-3.25,2.39,2.74,2.74,0,1,0,3.25-2.39Zm-23.58-4.6a2.48,2.48,0,0,0-2.95,1.92l5,1A2.37,2.37,0,0,0,421.26,276.12Zm-2.45,14.51a2.49,2.49,0,0,0-2.95,1.92l5,1A2.37,2.37,0,0,0,418.81,290.63Zm-9.12-1.73a3,3,0,1,0,2.12,3.44A2.72,2.72,0,0,0,409.69,288.9Zm50.43-5.24a2.47,2.47,0,0,0-3,1.9l5,1A2.35,2.35,0,0,0,460.12,283.66Zm-50.43,5.24a3,3,0,1,0,2.12,3.44A2.72,2.72,0,0,0,409.69,288.9Zm9.12,1.73a2.49,2.49,0,0,0-2.95,1.92l5,1A2.37,2.37,0,0,0,418.81,290.63Zm2.45-14.51a2.48,2.48,0,0,0-2.95,1.92l5,1A2.37,2.37,0,0,0,421.26,276.12Zm23.58,4.6a2.73,2.73,0,0,0-3.25,2.39,2.74,2.74,0,1,0,3.25-2.39Zm1.09,15.2a2.71,2.71,0,0,0-3.22,2.4,2.73,2.73,0,1,0,3.22-2.4Zm10.25,2a3,3,0,1,0,2.11,3.44A2.72,2.72,0,0,0,456.18,297.9ZM453,440.67c-3.12-1.88-5.67-.91-6.85,1.06s-.86,4.68,2.26,6.55,5.59,1.05,6.83-1S456.09,442.52,453,440.67Zm16.37-155.19a2.71,2.71,0,0,0-3.24,2.39,2.74,2.74,0,1,0,3.24-2.39Zm4.91,15.93A2.72,2.72,0,0,0,471,303.8a2.74,2.74,0,1,0,3.24-2.39Zm0,0A2.72,2.72,0,0,0,471,303.8a2.74,2.74,0,1,0,3.24-2.39Zm-4.91-15.93a2.71,2.71,0,0,0-3.24,2.39,2.74,2.74,0,1,0,3.24-2.39Zm-9.25-1.82a2.47,2.47,0,0,0-3,1.9l5,1A2.35,2.35,0,0,0,460.12,283.66Zm-3.94,14.24a3,3,0,1,0,2.11,3.44A2.72,2.72,0,0,0,456.18,297.9ZM453,440.67c-3.12-1.88-5.67-.91-6.85,1.06s-.86,4.68,2.26,6.55,5.59,1.05,6.83-1S456.09,442.52,453,440.67Zm-7.07-144.75a2.71,2.71,0,0,0-3.22,2.4,2.73,2.73,0,1,0,3.22-2.4Zm-1.09-15.2a2.73,2.73,0,0,0-3.25,2.39,2.74,2.74,0,1,0,3.25-2.39Zm-23.58-4.6a2.48,2.48,0,0,0-2.95,1.92l5,1A2.37,2.37,0,0,0,421.26,276.12Zm-2.45,14.51a2.49,2.49,0,0,0-2.95,1.92l5,1A2.37,2.37,0,0,0,418.81,290.63Zm-9.12-1.73a3,3,0,1,0,2.12,3.44A2.72,2.72,0,0,0,409.69,288.9Zm50.43-5.24a2.47,2.47,0,0,0-3,1.9l5,1A2.35,2.35,0,0,0,460.12,283.66Zm-50.43,5.24a3,3,0,1,0,2.12,3.44A2.72,2.72,0,0,0,409.69,288.9Zm9.12,1.73a2.49,2.49,0,0,0-2.95,1.92l5,1A2.37,2.37,0,0,0,418.81,290.63Zm2.45-14.51a2.48,2.48,0,0,0-2.95,1.92l5,1A2.37,2.37,0,0,0,421.26,276.12Zm23.58,4.6a2.73,2.73,0,0,0-3.25,2.39,2.74,2.74,0,1,0,3.25-2.39Zm1.09,15.2a2.71,2.71,0,0,0-3.22,2.4,2.73,2.73,0,1,0,3.22-2.4Zm10.25,2a3,3,0,1,0,2.11,3.44A2.72,2.72,0,0,0,456.18,297.9ZM453,440.67c-3.12-1.88-5.67-.91-6.85,1.06s-.86,4.68,2.26,6.55,5.59,1.05,6.83-1S456.09,442.52,453,440.67Zm16.37-155.19a2.71,2.71,0,0,0-3.24,2.39,2.74,2.74,0,1,0,3.24-2.39Zm4.91,15.93A2.72,2.72,0,0,0,471,303.8a2.74,2.74,0,1,0,3.24-2.39Zm0,0A2.72,2.72,0,0,0,471,303.8a2.74,2.74,0,1,0,3.24-2.39Zm-4.91-15.93a2.71,2.71,0,0,0-3.24,2.39,2.74,2.74,0,1,0,3.24-2.39Zm-9.25-1.82a2.47,2.47,0,0,0-3,1.9l5,1A2.35,2.35,0,0,0,460.12,283.66Zm-3.94,14.24a3,3,0,1,0,2.11,3.44A2.72,2.72,0,0,0,456.18,297.9ZM453,440.67c-3.12-1.88-5.67-.91-6.85,1.06s-.86,4.68,2.26,6.55,5.59,1.05,6.83-1S456.09,442.52,453,440.67Zm-7.07-144.75a2.71,2.71,0,0,0-3.22,2.4,2.73,2.73,0,1,0,3.22-2.4Zm-1.09-15.2a2.73,2.73,0,0,0-3.25,2.39,2.74,2.74,0,1,0,3.25-2.39Zm-23.58-4.6a2.48,2.48,0,0,0-2.95,1.92l5,1A2.37,2.37,0,0,0,421.26,276.12Zm-2.45,14.51a2.49,2.49,0,0,0-2.95,1.92l5,1A2.37,2.37,0,0,0,418.81,290.63Zm-9.12-1.73a3,3,0,1,0,2.12,3.44A2.72,2.72,0,0,0,409.69,288.9Zm0,0a3,3,0,1,0,2.12,3.44A2.72,2.72,0,0,0,409.69,288.9Zm11.57-12.78a2.48,2.48,0,0,0-2.95,1.92l5,1A2.37,2.37,0,0,0,421.26,276.12Zm-2.45,14.51a2.49,2.49,0,0,0-2.95,1.92l5,1A2.37,2.37,0,0,0,418.81,290.63Zm26-9.91a2.73,2.73,0,0,0-3.25,2.39,2.74,2.74,0,1,0,3.25-2.39Zm1.09,15.2a2.71,2.71,0,0,0-3.22,2.4,2.73,2.73,0,1,0,3.22-2.4Zm10.25,2a3,3,0,1,0,2.11,3.44A2.72,2.72,0,0,0,456.18,297.9Zm3.94-14.24a2.47,2.47,0,0,0-3,1.9l5,1A2.35,2.35,0,0,0,460.12,283.66Zm9.25,1.82a2.71,2.71,0,0,0-3.24,2.39,2.74,2.74,0,1,0,3.24-2.39Zm4.91,15.93A2.72,2.72,0,0,0,471,303.8a2.74,2.74,0,1,0,3.24-2.39Zm0,0A2.72,2.72,0,0,0,471,303.8a2.74,2.74,0,1,0,3.24-2.39Zm-4.91-15.93a2.71,2.71,0,0,0-3.24,2.39,2.74,2.74,0,1,0,3.24-2.39Zm-9.25-1.82a2.47,2.47,0,0,0-3,1.9l5,1A2.35,2.35,0,0,0,460.12,283.66Zm-3.94,14.24a3,3,0,1,0,2.11,3.44A2.72,2.72,0,0,0,456.18,297.9Zm-10.25-2a2.71,2.71,0,0,0-3.22,2.4,2.73,2.73,0,1,0,3.22-2.4Zm-1.09-15.2a2.73,2.73,0,0,0-3.25,2.39,2.74,2.74,0,1,0,3.25-2.39Zm-26,9.91a2.49,2.49,0,0,0-2.95,1.92l5,1A2.37,2.37,0,0,0,418.81,290.63Zm2.45-14.51a2.48,2.48,0,0,0-2.95,1.92l5,1A2.37,2.37,0,0,0,421.26,276.12ZM409.69,288.9a3,3,0,1,0,2.12,3.44A2.72,2.72,0,0,0,409.69,288.9Zm0,0a3,3,0,1,0,2.12,3.44A2.72,2.72,0,0,0,409.69,288.9Zm9.12,1.73a2.49,2.49,0,0,0-2.95,1.92l5,1A2.37,2.37,0,0,0,418.81,290.63Zm26-9.91a2.73,2.73,0,0,0-3.25,2.39,2.74,2.74,0,1,0,3.25-2.39Zm1.09,15.2a2.71,2.71,0,0,0-3.22,2.4,2.73,2.73,0,1,0,3.22-2.4Zm10.25,2a3,3,0,1,0,2.11,3.44A2.72,2.72,0,0,0,456.18,297.9Zm3.94-14.24a2.47,2.47,0,0,0-3,1.9l5,1A2.35,2.35,0,0,0,460.12,283.66Zm9.25,1.82a2.71,2.71,0,0,0-3.24,2.39,2.74,2.74,0,1,0,3.24-2.39Zm4.91,15.93A2.72,2.72,0,0,0,471,303.8a2.74,2.74,0,1,0,3.24-2.39Zm0,0A2.72,2.72,0,0,0,471,303.8a2.74,2.74,0,1,0,3.24-2.39Zm-4.91-15.93a2.71,2.71,0,0,0-3.24,2.39,2.74,2.74,0,1,0,3.24-2.39Zm-9.25-1.82a2.47,2.47,0,0,0-3,1.9l5,1A2.35,2.35,0,0,0,460.12,283.66Zm-3.94,14.24a3,3,0,1,0,2.11,3.44A2.72,2.72,0,0,0,456.18,297.9Zm-10.25-2a2.71,2.71,0,0,0-3.22,2.4,2.73,2.73,0,1,0,3.22-2.4Zm-1.09-15.2a2.73,2.73,0,0,0-3.25,2.39,2.74,2.74,0,1,0,3.25-2.39Zm-26,9.91a2.49,2.49,0,0,0-2.95,1.92l5,1A2.37,2.37,0,0,0,418.81,290.63Zm-9.12-1.73a3,3,0,1,0,2.12,3.44A2.72,2.72,0,0,0,409.69,288.9Zm35.15-8.18a2.73,2.73,0,0,0-3.25,2.39,2.74,2.74,0,1,0,3.25-2.39Zm1.09,15.2a2.71,2.71,0,0,0-3.22,2.4,2.73,2.73,0,1,0,3.22-2.4Zm10.25,2a3,3,0,1,0,2.11,3.44A2.72,2.72,0,0,0,456.18,297.9Zm3.94-14.24a2.47,2.47,0,0,0-3,1.9l5,1A2.35,2.35,0,0,0,460.12,283.66Zm9.25,1.82a2.71,2.71,0,0,0-3.24,2.39,2.74,2.74,0,1,0,3.24-2.39Zm4.91,15.93A2.72,2.72,0,0,0,471,303.8a2.74,2.74,0,1,0,3.24-2.39Zm0,0A2.72,2.72,0,0,0,471,303.8a2.74,2.74,0,1,0,3.24-2.39Zm-4.91-15.93a2.71,2.71,0,0,0-3.24,2.39,2.74,2.74,0,1,0,3.24-2.39Zm-9.25-1.82a2.47,2.47,0,0,0-3,1.9l5,1A2.35,2.35,0,0,0,460.12,283.66Zm-3.94,14.24a3,3,0,1,0,2.11,3.44A2.72,2.72,0,0,0,456.18,297.9Zm-10.25-2a2.71,2.71,0,0,0-3.22,2.4,2.73,2.73,0,1,0,3.22-2.4Zm-1.09-15.2a2.73,2.73,0,0,0-3.25,2.39,2.74,2.74,0,1,0,3.25-2.39Zm0,0a2.73,2.73,0,0,0-3.25,2.39,2.74,2.74,0,1,0,3.25-2.39Zm1.09,15.2a2.71,2.71,0,0,0-3.22,2.4,2.73,2.73,0,1,0,3.22-2.4Zm10.25,2a3,3,0,1,0,2.11,3.44A2.72,2.72,0,0,0,456.18,297.9Zm3.94-14.24a2.47,2.47,0,0,0-3,1.9l5,1A2.35,2.35,0,0,0,460.12,283.66Zm9.25,1.82a2.71,2.71,0,0,0-3.24,2.39,2.74,2.74,0,1,0,3.24-2.39Zm4.91,15.93A2.72,2.72,0,0,0,471,303.8a2.74,2.74,0,1,0,3.24-2.39Zm0,0A2.72,2.72,0,0,0,471,303.8a2.74,2.74,0,1,0,3.24-2.39Zm-4.91-15.93a2.71,2.71,0,0,0-3.24,2.39,2.74,2.74,0,1,0,3.24-2.39Zm-9.25-1.82a2.47,2.47,0,0,0-3,1.9l5,1A2.35,2.35,0,0,0,460.12,283.66Zm-3.94,14.24a3,3,0,1,0,2.11,3.44A2.72,2.72,0,0,0,456.18,297.9Zm-10.25-2a2.71,2.71,0,0,0-3.22,2.4,2.73,2.73,0,1,0,3.22-2.4Zm-1.09-15.2a2.73,2.73,0,0,0-3.25,2.39,2.74,2.74,0,1,0,3.25-2.39Zm0,0a2.73,2.73,0,0,0-3.25,2.39,2.74,2.74,0,1,0,3.25-2.39Zm15.28,2.94a2.47,2.47,0,0,0-3,1.9l5,1A2.35,2.35,0,0,0,460.12,283.66Zm9.25,1.82a2.71,2.71,0,0,0-3.24,2.39,2.74,2.74,0,1,0,3.24-2.39Zm4.91,15.93A2.72,2.72,0,0,0,471,303.8a2.74,2.74,0,1,0,3.24-2.39Zm0,0A2.72,2.72,0,0,0,471,303.8a2.74,2.74,0,1,0,3.24-2.39Zm-4.91-15.93a2.71,2.71,0,0,0-3.24,2.39,2.74,2.74,0,1,0,3.24-2.39Zm-9.25-1.82a2.47,2.47,0,0,0-3,1.9l5,1A2.35,2.35,0,0,0,460.12,283.66Zm-15.28-2.94a2.73,2.73,0,0,0-3.25,2.39,2.74,2.74,0,1,0,3.25-2.39Zm0,0a2.73,2.73,0,0,0-3.25,2.39,2.74,2.74,0,1,0,3.25-2.39Zm15.28,2.94a2.47,2.47,0,0,0-3,1.9l5,1A2.35,2.35,0,0,0,460.12,283.66Zm9.25,1.82a2.71,2.71,0,0,0-3.24,2.39,2.74,2.74,0,1,0,3.24-2.39Zm4.91,15.93A2.72,2.72,0,0,0,471,303.8a2.74,2.74,0,1,0,3.24-2.39Zm0,0A2.72,2.72,0,0,0,471,303.8a2.74,2.74,0,1,0,3.24-2.39Zm-4.91-15.93a2.71,2.71,0,0,0-3.24,2.39,2.74,2.74,0,1,0,3.24-2.39Zm-9.25-1.82a2.47,2.47,0,0,0-3,1.9l5,1A2.35,2.35,0,0,0,460.12,283.66Zm-15.28-2.94a2.73,2.73,0,0,0-3.25,2.39,2.74,2.74,0,1,0,3.25-2.39Zm15.28,2.94a2.47,2.47,0,0,0-3,1.9l5,1A2.35,2.35,0,0,0,460.12,283.66Zm9.25,1.82a2.71,2.71,0,0,0-3.24,2.39,2.74,2.74,0,1,0,3.24-2.39Zm4.91,15.93A2.72,2.72,0,0,0,471,303.8a2.74,2.74,0,1,0,3.24-2.39Zm0,0A2.72,2.72,0,0,0,471,303.8a2.74,2.74,0,1,0,3.24-2.39Zm-4.91-15.93a2.71,2.71,0,0,0-3.24,2.39,2.74,2.74,0,1,0,3.24-2.39Zm-9.25-1.82a2.47,2.47,0,0,0-3,1.9l5,1A2.35,2.35,0,0,0,460.12,283.66Zm9.25,1.82a2.71,2.71,0,0,0-3.24,2.39,2.74,2.74,0,1,0,3.24-2.39Zm4.91,15.93A2.72,2.72,0,0,0,471,303.8a2.74,2.74,0,1,0,3.24-2.39Zm0,0A2.72,2.72,0,0,0,471,303.8a2.74,2.74,0,1,0,3.24-2.39Zm-4.91-15.93a2.71,2.71,0,0,0-3.24,2.39,2.74,2.74,0,1,0,3.24-2.39Zm4.91,15.93A2.72,2.72,0,0,0,471,303.8a2.74,2.74,0,1,0,3.24-2.39Zm0,0A2.72,2.72,0,0,0,471,303.8a2.74,2.74,0,1,0,3.24-2.39Zm0,0A2.72,2.72,0,0,0,471,303.8a2.74,2.74,0,1,0,3.24-2.39Zm0,0A2.72,2.72,0,0,0,471,303.8a2.74,2.74,0,1,0,3.24-2.39Z"/><path class="cls-3" d="M425.73,108.56c.7,1.63,2.38,1.44,3.67,1.85,5.19,1.65,10.39,3.19,14.82,6.57,4.84,3.68,7.08,8.28,5.94,14.48-.82,4.46-1.24,9-1.72,13.53-.08.78-1.26,2.53,1.56,1.89,2.4-.55.87,1.64.54,2.35-4.74,10.15-12.44,16.44-23.86,17-8.57.44-17-1.2-25.36-3-5.24-1.15-7.75-5.15-8.62-10.29-3-17.69,6.83-37.51,22.17-43.23.35-.13.58-.6.87-.92Z"/><path class="cls-3" d="M560.16,244.87c-.24,2.43-.5,4.85-.71,7.27-.27,3.16-.69,6.09-4,7.86-1.7.93-2.13,3-2.79,4.79-2.75,7.28-6.81,8.49-12.85,3.83-12.89-9.95-12.37-20.71-6.68-34.07,3-6.94,15.05-11.61,22.36-9.87,2.42.57,3.68,2.29,4.89,4.17l.21,9.33c-.66,1.16-.12,2.4-.26,3.59C560.28,242.8,560.72,243.87,560.16,244.87Z"/><path class="cls-3" d="M326.79,567.49a11.94,11.94,0,0,1,.18,8Z"/><path class="cls-3" d="M514.26,203.16a30.71,30.71,0,0,1,19.32-29.08c4.24-1.72,8.38-2.26,12.12,1.14,4.25,3.85,6.43,8.44,4.76,14.26a31.23,31.23,0,0,1-1.88,5,20.37,20.37,0,0,0-1.64,14.22c.66,2.63-.44,4.84-2.39,6.53-8.44,7.36-18.67,7.83-27.33-.77C513.89,211.11,514.1,206.79,514.26,203.16Z"/><path class="cls-3" d="M460.22,166c.31-11.41,5.29-22.06,12.19-32,4-5.8,7.17-7,12.85-4.86,8.24,3,10.81,6.62,10.14,13.8-.45,4.76-.74,9.54-2.13,14.14C490.9,165,486.5,171,478.44,173.91c-1.88.66-3.66,1.61-5.47,2.45-7.25,3.39-12.28.33-12.69-7.71C460.25,168.1,460.25,167.54,460.22,166Z"/><path class="cls-3" d="M488.73,178.77a18.36,18.36,0,0,1,1.09-5.86,44.42,44.42,0,0,1,16.73-21.82c7.6-5.3,17.35-1.56,19.75,7.44a8.47,8.47,0,0,1-1.28,7A215.42,215.42,0,0,1,509,188c-6.58,8-15.4,6.36-19-3.35A21.57,21.57,0,0,1,488.73,178.77Z"/><text class="cls-4" transform="translate(190.64 228.51)">Espacio <tspan x="-17.2" y="31">productivo</tspan><tspan x="10.43" y="62">global:</tspan><tspan class="cls-5"><tspan x="-10.8" y="162">2,1</tspan></tspan><tspan x="-12.82" y="209.18">hectáreas</tspan><tspan x="-13.94" y="240.64">per cápita</tspan></text></svg>